<svg width="52" height="23" viewBox="0 0 52 23" fill="none" xmlns="http://www.w3.org/2000/svg">
<path d="M10.0906 3.49023C10.6297 2.83887 11.0115 1.95166 11.0115 1.05322C11.0115 0.929688 11.0003 0.806152 10.9779 0.705078C10.1019 0.73877 9.04621 1.28906 8.41731 2.03027C7.92317 2.5918 7.46272 3.49023 7.46272 4.38867C7.46272 4.52344 7.48518 4.6582 7.49641 4.70312C7.55256 4.71436 7.6424 4.72559 7.73225 4.72559C8.51838 4.72559 9.50666 4.19775 10.0906 3.49023ZM10.7083 4.9165C9.39436 4.9165 8.32746 5.71387 7.6424 5.71387C6.91242 5.71387 5.95783 4.96143 4.81233 4.96143C2.64485 4.96143 0.443674 6.7583 0.443674 10.1387C0.443674 12.25 1.25227 14.4736 2.26301 15.9111C3.12776 17.124 3.8802 18.1235 4.96955 18.1235C6.04768 18.1235 6.51936 17.4048 7.85578 17.4048C9.21467 17.4048 9.51789 18.1011 10.7083 18.1011C11.8875 18.1011 12.6737 17.0229 13.4149 15.9561C14.2459 14.7319 14.5941 13.5415 14.6053 13.4854C14.5379 13.4629 12.2806 12.542 12.2806 9.95898C12.2806 7.72412 14.055 6.72461 14.1561 6.646C12.9881 4.96143 11.2025 4.9165 10.7083 4.9165ZM16.1673 18H19.0647V12.6431H22.636C25.9265 12.6431 28.1502 10.4644 28.1502 7.22998V7.20752C28.1502 3.96191 25.9265 1.79443 22.636 1.79443H16.1673V18ZM21.9285 4.16406C24.0061 4.16406 25.219 5.27588 25.219 7.21875V7.24121C25.219 9.18408 24.0061 10.3071 21.9285 10.3071H19.0647V4.16406H21.9285ZM32.7332 18.2021C34.3503 18.2021 35.6531 17.5059 36.3269 16.3154H36.5178V18H39.2805V9.61084C39.2805 7.0166 37.5061 5.48926 34.3503 5.48926C31.4304 5.48926 29.4539 6.85938 29.1843 8.92578L29.1731 9.02686H31.8123L31.8235 8.98193C32.1042 8.17334 32.9353 7.71289 34.2156 7.71289C35.7205 7.71289 36.5178 8.38672 36.5178 9.61084V10.6665L33.3621 10.8574C30.3748 11.0371 28.7014 12.3174 28.7014 14.5073V14.5298C28.7014 16.7646 30.3972 18.2021 32.7332 18.2021ZM31.4641 14.395V14.3726C31.4641 13.3618 32.1941 12.7891 33.7551 12.688L36.5178 12.5083V13.4966C36.5178 14.9565 35.2712 16.0571 33.5867 16.0571C32.3513 16.0571 31.4641 15.4395 31.4641 14.395ZM42.3474 22.3125C45.0651 22.3125 46.469 21.3354 47.5246 18.2583L51.927 5.7251H48.9846L46.132 15.3159H45.9187L43.0549 5.7251H40.0002L44.3913 18.0112L44.2453 18.5728C43.9421 19.6846 43.257 20.1562 42.1115 20.1562C41.8195 20.1562 41.5051 20.145 41.2805 20.1226V22.2676C41.6174 22.3013 42.0105 22.3125 42.3474 22.3125Z" fill="black"/>
</svg>
