<svg width="22" height="19" viewBox="0 0 22 19" fill="none" xmlns="http://www.w3.org/2000/svg">
<path d="M20.75 0.332031H1.25C0.835156 0.332031 0.5 0.704427 0.5 1.16536V17.832C0.5 18.293 0.835156 18.6654 1.25 18.6654H20.75C21.1648 18.6654 21.5 18.293 21.5 17.832V1.16536C21.5 0.704427 21.1648 0.332031 20.75 0.332031ZM2.1875 2.20703H19.8125V5.33203H2.1875V2.20703ZM19.8125 16.7904H2.1875V7.6237H19.8125V16.7904ZM14.2578 15.1237H18.125C18.2281 15.1237 18.3125 15.0299 18.3125 14.9154V13.0404C18.3125 12.9258 18.2281 12.832 18.125 12.832H14.2578C14.1547 12.832 14.0703 12.9258 14.0703 13.0404V14.9154C14.0703 15.0299 14.1547 15.1237 14.2578 15.1237Z" fill="#4F555F"/>
</svg>
