<svg width="107" height="24" viewBox="0 0 107 24" fill="none"
    xmlns="http://www.w3.org/2000/svg">
    <g clip-path="url(#clip0_2327_6585)">
        <path d="M103.617 0H3.19154C2.49324 0 1.82354 0.277398 1.32976 0.771171C0.835992 1.26494 0.558594 1.93464 0.558594 2.63294L0.558594 21.3671C0.558594 22.0654 0.835992 22.7351 1.32976 23.2288C1.82354 23.7226 2.49324 24 3.19154 24H103.617C104.366 24 105.084 23.7025 105.614 23.173C106.143 22.6435 106.441 21.9253 106.441 21.1765V2.82353C106.441 2.07468 106.143 1.35651 105.614 0.826993C105.084 0.297478 104.366 0 103.617 0V0ZM105.735 21.1765C105.735 21.7381 105.512 22.2767 105.115 22.6739C104.718 23.071 104.179 23.2941 103.617 23.2941H3.19154C2.68102 23.2923 2.19194 23.0886 1.83095 22.7276C1.46996 22.3666 1.26634 21.8776 1.26448 21.3671V2.63294C1.26634 2.12243 1.46996 1.63335 1.83095 1.27236C2.19194 0.911368 2.68102 0.707742 3.19154 0.705882H103.617C104.179 0.705882 104.718 0.928991 105.115 1.32613C105.512 1.72326 105.735 2.26189 105.735 2.82353V21.1765Z" fill="white"/>
        <path d="M12.6076 7.93408H9.57227V15.5294H10.9276V12.5929H12.6076C14.3017 12.5929 15.3605 11.7741 15.3605 10.2635C15.3605 8.75291 14.3017 7.93408 12.6076 7.93408ZM12.537 11.4635H10.9276V9.13408H12.5581C13.5323 9.13408 14.0476 9.55055 14.0476 10.2988C14.0476 11.047 13.5111 11.4282 12.5581 11.4282L12.537 11.4635Z" fill="white"/>
        <path d="M18.2759 9.88227C17.9049 9.87797 17.537 9.95134 17.1959 10.0977C16.8549 10.244 16.5482 10.46 16.2956 10.7319C16.043 11.0038 15.85 11.3255 15.7291 11.6764C15.6082 12.0273 15.5621 12.3995 15.5936 12.7693C15.5605 13.1411 15.6052 13.5158 15.7248 13.8694C15.8444 14.223 16.0362 14.5478 16.2882 14.8232C16.5402 15.0986 16.8467 15.3185 17.1883 15.469C17.53 15.6194 17.8991 15.6971 18.2724 15.6971C18.6457 15.6971 19.0149 15.6194 19.3565 15.469C19.6981 15.3185 20.0046 15.0986 20.2566 14.8232C20.5086 14.5478 20.7005 14.223 20.8201 13.8694C20.9397 13.5158 20.9843 13.1411 20.9512 12.7693C20.9838 12.3999 20.9386 12.0278 20.8186 11.6769C20.6985 11.326 20.5062 11.0042 20.2542 10.7322C20.0021 10.4602 19.6958 10.244 19.3551 10.0976C19.0144 9.95124 18.6468 9.87787 18.2759 9.88227ZM18.2759 14.5905C17.4148 14.5905 16.8642 13.8846 16.8642 12.7693C16.8642 11.654 17.4007 10.9481 18.2759 10.9481C19.1512 10.9481 19.6877 11.654 19.6877 12.7693C19.6877 13.8846 19.1301 14.5834 18.2759 14.5834V14.5905Z" fill="white"/>
        <path d="M26.521 13.6588L25.5257 9.97412H24.481L23.4928 13.6588L22.4905 9.97412H21.1846L22.8575 15.5365H23.9587L24.9752 11.8941L25.9916 15.5365H27.0928L28.7658 9.97412H27.5093L26.521 13.6588Z" fill="white"/>
        <path d="M31.6174 9.88232C31.2511 9.88913 30.8901 9.97028 30.5562 10.1209C30.2223 10.2715 29.9224 10.4883 29.6749 10.7583C29.4273 11.0283 29.2372 11.3458 29.1161 11.6915C28.995 12.0372 28.9454 12.4039 28.9703 12.7694C28.9408 13.1405 28.9891 13.5137 29.1121 13.8651C29.235 14.2164 29.43 14.5383 29.6844 14.81C29.9389 15.0818 30.2473 15.2974 30.5898 15.4431C30.9324 15.5889 31.3016 15.6615 31.6739 15.6564C32.1856 15.684 32.6932 15.5504 33.125 15.2743C33.5568 14.9982 33.8911 14.5937 34.0809 14.1176L33.0292 13.68C32.9466 13.9527 32.7738 14.1894 32.5391 14.351C32.3043 14.5126 32.0217 14.5896 31.7374 14.5694C31.5349 14.5742 31.3336 14.5379 31.1455 14.4626C30.9575 14.3874 30.7867 14.2747 30.6435 14.1315C30.5003 13.9883 30.3876 13.8175 30.3124 13.6295C30.2371 13.4414 30.2008 13.2401 30.2056 13.0376H34.1021V12.6141C34.1162 11.0894 33.255 9.88232 31.6174 9.88232ZM30.255 12.0917C30.3045 11.7676 30.4698 11.4724 30.7203 11.2608C30.9708 11.0493 31.2895 10.9357 31.6174 10.9411C31.7732 10.928 31.9299 10.9481 32.0773 11.0003C32.2247 11.0524 32.3593 11.1353 32.4721 11.2435C32.585 11.3516 32.6735 11.4826 32.7318 11.6277C32.7901 11.7727 32.8169 11.9285 32.8103 12.0847L30.255 12.0917Z" fill="white"/>
        <path d="M36.3399 10.8001V9.97421H35.0693V15.5295H36.3399V12.6142C36.3286 12.4259 36.3574 12.2373 36.4243 12.0608C36.4912 11.8844 36.5949 11.7242 36.7283 11.5908C36.8617 11.4574 37.0219 11.3538 37.1983 11.2868C37.3747 11.2199 37.5633 11.1911 37.7517 11.2024C37.9068 11.1915 38.0625 11.1915 38.2176 11.2024V9.93185C38.1187 9.93185 38.0058 9.93185 37.8576 9.93185C37.548 9.91581 37.2403 9.98913 36.9712 10.1431C36.7021 10.297 36.483 10.5251 36.3399 10.8001Z" fill="white"/>
        <path d="M41.133 9.88232C40.7668 9.88913 40.4057 9.97028 40.0718 10.1209C39.7379 10.2715 39.4381 10.4883 39.1905 10.7583C38.9429 11.0283 38.7528 11.3458 38.6317 11.6915C38.5106 12.0372 38.461 12.4039 38.486 12.7694C38.4565 13.1405 38.5047 13.5137 38.6277 13.8651C38.7507 14.2164 38.9456 14.5383 39.2001 14.81C39.4545 15.0818 39.7629 15.2974 40.1055 15.4432C40.448 15.5889 40.8172 15.6615 41.1895 15.6564C41.6966 15.678 42.1978 15.5415 42.624 15.2659C43.0501 14.9902 43.3801 14.589 43.5683 14.1176L42.4812 13.7011C42.3987 13.9739 42.2259 14.2105 41.9912 14.3721C41.7564 14.5338 41.4738 14.6108 41.1895 14.5906C40.9912 14.5887 40.7952 14.5475 40.6129 14.4693C40.4306 14.391 40.2657 14.2774 40.1278 14.1348C39.9899 13.9923 39.8817 13.8238 39.8094 13.639C39.7372 13.4543 39.7024 13.2571 39.7071 13.0588H43.6177V12.6353C43.6177 11.0894 42.7424 9.88232 41.133 9.88232ZM39.7707 12.0917C39.8215 11.7701 39.9865 11.4775 40.2353 11.2676C40.4842 11.0576 40.8004 10.9442 41.126 10.9482C41.2817 10.935 41.4385 10.9552 41.5859 11.0073C41.7333 11.0594 41.8679 11.1424 41.9807 11.2505C42.0936 11.3587 42.1821 11.4897 42.2404 11.6347C42.2987 11.7798 42.3255 11.9355 42.3189 12.0917H39.7707Z" fill="white"/>
        <path d="M48.2478 10.5882C48.052 10.3583 47.8068 10.1755 47.5307 10.0533C47.2545 9.93115 46.9544 9.87269 46.6525 9.88232C45.0925 9.88232 44.2031 11.1882 44.2031 12.7694C44.2031 14.3506 45.0925 15.6564 46.6525 15.6564C46.9546 15.6676 47.2552 15.6099 47.5316 15.4876C47.808 15.3653 48.053 15.1816 48.2478 14.9506V15.5294H49.5184V7.93408H48.2478V10.5882ZM48.2478 12.9529C48.2763 13.1542 48.261 13.3592 48.2029 13.554C48.1448 13.7488 48.0453 13.9288 47.9113 14.0816C47.7772 14.2344 47.6118 14.3565 47.4262 14.4394C47.2406 14.5224 47.0393 14.5643 46.8361 14.5623C45.9114 14.5623 45.4243 13.8564 45.4243 12.7835C45.4243 11.7106 45.9184 11.0047 46.8361 11.0047C47.6196 11.0047 48.2478 11.5764 48.2478 12.6211V12.9529Z" fill="white"/>
        <path d="M56.5418 9.88232C56.2343 9.86886 55.9278 9.92541 55.6453 10.0477C55.3628 10.17 55.1118 10.3548 54.9112 10.5882V7.93408H53.6406V15.5294H54.9112V14.9435C55.1082 15.1739 55.3545 15.357 55.6319 15.4792C55.9093 15.6014 56.2106 15.6596 56.5136 15.6494C58.0665 15.6494 58.9559 14.3364 58.9559 12.7623C58.9559 11.1882 58.0947 9.88232 56.5418 9.88232ZM56.323 14.5411C56.1197 14.5431 55.9184 14.5012 55.7328 14.4183C55.5473 14.3353 55.3818 14.2132 55.2478 14.0604C55.1137 13.9076 55.0142 13.7276 54.9562 13.5328C54.8981 13.338 54.8827 13.133 54.9112 12.9317V12.6C54.9112 11.5553 55.5042 10.9835 56.323 10.9835C57.2406 10.9835 57.7347 11.6894 57.7347 12.7623C57.7347 13.8353 57.2053 14.5411 56.323 14.5411Z" fill="white"/>
        <path d="M61.9213 13.8777L60.559 9.97412H59.2178L61.2648 15.3318L61.0531 15.8541C61.0171 16.0331 60.9131 16.1911 60.7631 16.2951C60.6131 16.3991 60.4286 16.4409 60.2484 16.4118C60.1074 16.4221 59.9658 16.4221 59.8248 16.4118V17.4777C59.9954 17.503 60.1677 17.5148 60.3401 17.5129C60.7808 17.545 61.2188 17.4212 61.5775 17.1631C61.9362 16.9051 62.1928 16.5292 62.3025 16.1012L64.5895 10.0165H63.2554L61.9213 13.8777Z" fill="white"/>
        <path d="M88.7943 8.77421C88.5156 8.77259 88.2393 8.82601 87.9813 8.9314C87.7233 9.03678 87.4886 9.19206 87.2908 9.38832L87.1919 8.90126H85.5049V18.0213L87.4249 17.6048V15.3954C87.8068 15.7152 88.2891 15.8901 88.7872 15.8895C90.1566 15.8895 91.4131 14.7671 91.4131 12.2824C91.4131 10.0095 90.1425 8.77421 88.7943 8.77421ZM88.3355 14.1601C88.1671 14.1698 87.9986 14.1419 87.8423 14.0784C87.6861 14.0149 87.5459 13.9174 87.4319 13.793V10.8919C87.5463 10.7629 87.6881 10.6611 87.8469 10.594C88.0056 10.5268 88.1774 10.4959 88.3496 10.5036C89.0555 10.5036 89.5355 11.3013 89.5355 12.3248C89.5355 13.3483 89.0484 14.1601 88.3355 14.1601Z" fill="white"/>
        <path d="M94.9561 8.77417C93.1067 8.77417 91.9844 10.3695 91.9844 12.3812C91.9844 14.7601 93.3114 15.9671 95.2032 15.9671C95.9415 15.9792 96.6706 15.8017 97.3208 15.4518V13.8636C96.7303 14.1615 96.0763 14.3117 95.415 14.3012C94.6526 14.3012 94.0032 14.0259 93.9044 13.1012H97.702C97.702 12.9953 97.702 12.5789 97.702 12.3953C97.7655 10.3695 96.8055 8.77417 94.9561 8.77417ZM93.9185 11.6471C93.9185 10.7577 94.462 10.3836 94.942 10.3836C95.422 10.3836 95.9303 10.7577 95.9303 11.6471H93.9185Z" fill="white"/>
        <path d="M80.3231 9.43052L80.2031 8.8517H78.5654V15.7058H80.4572V11.0611C80.6281 10.8537 80.8581 10.7033 81.1167 10.6302C81.3753 10.557 81.6501 10.5645 81.9043 10.6517V8.8517C81.6155 8.73857 81.2953 8.73497 81.004 8.84159C80.7128 8.94821 80.4706 9.15768 80.3231 9.43052Z" fill="white"/>
        <path d="M70.7654 10.913C70.7654 10.6025 71.0195 10.4825 71.4219 10.4825C72.0887 10.4968 72.7423 10.6711 73.3277 10.9907V9.13422C72.7225 8.88948 72.0747 8.76713 71.4219 8.77422C69.8619 8.77422 68.8242 9.60716 68.8242 11.0048C68.8242 13.193 71.7466 12.8401 71.7466 13.7789C71.7466 14.146 71.436 14.266 71.0407 14.266C70.2949 14.2224 69.5697 14.0048 68.923 13.6307V15.5295C69.5895 15.8268 70.311 15.9807 71.0407 15.9813C72.636 15.9813 73.7372 15.1695 73.7372 13.7507C73.7019 11.3789 70.7654 11.8025 70.7654 10.913Z" fill="white"/>
        <path d="M76.2859 7.22827L74.4153 7.63768V13.9412C74.4057 14.2069 74.4503 14.4717 74.5465 14.7195C74.6427 14.9673 74.7884 15.1929 74.9747 15.3825C75.161 15.5722 75.384 15.7218 75.6301 15.8223C75.8762 15.9228 76.1402 15.9721 76.4059 15.9671C76.8697 15.9878 77.3317 15.8983 77.7542 15.7059V14.1177C77.5071 14.2236 76.3001 14.5836 76.3001 13.4118V10.5883H77.7542V8.93651H76.3001L76.2859 7.22827Z" fill="white"/>
        <path d="M82.6172 8.25885L84.5442 7.85649V6.33179L82.6172 6.73414V8.25885Z" fill="white"/>
        <path d="M84.5442 8.90112H82.6172V15.7058H84.5442V8.90112Z" fill="white"/>
    </g>
    <defs>
        <clipPath id="clip0_2327_6585">
            <rect width="105.882" height="24" fill="white" transform="translate(0.558594)"/>
        </clipPath>
    </defs>
</svg>
