<svg width="142" height="32" viewBox="0 0 142 32" fill="none"
    xmlns="http://www.w3.org/2000/svg">
    <g clip-path="url(#clip0_2327_6174)">
        <path d="M137.824 0H3.92245C2.99139 0 2.09846 0.369865 1.44009 1.02823C0.78173 1.68659 0.411865 2.57952 0.411865 3.51059L0.411865 28.4894C0.411865 29.4205 0.78173 30.3134 1.44009 30.9718C2.09846 31.6301 2.99139 32 3.92245 32H137.824C138.822 32 139.78 31.6034 140.486 30.8973C141.192 30.1913 141.588 29.2338 141.588 28.2353V3.76471C141.588 2.76624 141.192 1.80868 140.486 1.10266C139.78 0.396638 138.822 0 137.824 0V0ZM140.647 28.2353C140.647 28.9841 140.35 29.7023 139.82 30.2318C139.291 30.7613 138.572 31.0588 137.824 31.0588H3.92245C3.24177 31.0563 2.58967 30.7848 2.10834 30.3035C1.62702 29.8222 1.35552 29.1701 1.35304 28.4894V3.51059C1.35552 2.8299 1.62702 2.1778 2.10834 1.69648C2.58967 1.21516 3.24177 0.943656 3.92245 0.941176H137.824C138.572 0.941176 139.291 1.23865 139.82 1.76817C140.35 2.29768 140.647 3.01586 140.647 3.76471V28.2353Z" fill="white"/>
        <path d="M16.4777 10.5789H12.4307V20.7059H14.2377V16.7906H16.4777C18.7365 16.7906 20.1483 15.6989 20.1483 13.6847C20.1483 11.6706 18.7365 10.5789 16.4777 10.5789ZM16.3836 15.2847H14.2377V12.1789H16.4118C17.7107 12.1789 18.3977 12.7342 18.3977 13.7318C18.3977 14.7294 17.6824 15.2377 16.4118 15.2377L16.3836 15.2847Z" fill="white"/>
        <path d="M24.0354 13.1765C23.5406 13.1708 23.0501 13.2686 22.5954 13.4637C22.1406 13.6588 21.7317 13.9469 21.3949 14.3094C21.0581 14.6719 20.8008 15.1008 20.6397 15.5687C20.4785 16.0365 20.4169 16.5329 20.4589 17.0259C20.4148 17.5217 20.4744 18.0212 20.6338 18.4926C20.7933 18.9641 21.0491 19.3972 21.3851 19.7644C21.7211 20.1316 22.1298 20.4249 22.5853 20.6255C23.0408 20.8261 23.533 20.9297 24.0307 20.9297C24.5284 20.9297 25.0207 20.8261 25.4761 20.6255C25.9316 20.4249 26.3403 20.1316 26.6763 19.7644C27.0123 19.3972 27.2681 18.9641 27.4276 18.4926C27.587 18.0212 27.6466 17.5217 27.6025 17.0259C27.6459 16.5334 27.5856 16.0372 27.4255 15.5694C27.2655 15.1015 27.0091 14.6725 26.673 14.3098C26.337 13.9471 25.9286 13.6589 25.4743 13.4637C25.02 13.2685 24.5298 13.1707 24.0354 13.1765ZM24.0354 19.4542C22.8872 19.4542 22.1531 18.513 22.1531 17.0259C22.1531 15.5389 22.8684 14.5977 24.0354 14.5977C25.2025 14.5977 25.9178 15.5389 25.9178 17.0259C25.9178 18.513 25.1742 19.4448 24.0354 19.4448V19.4542Z" fill="white"/>
        <path d="M35.0284 18.2118L33.7013 13.2988H32.3084L30.9907 18.2118L29.6543 13.2988H27.9131L30.1437 20.7153H31.6119L32.9672 15.8588L34.3225 20.7153H35.7907L38.0213 13.2988H36.346L35.0284 18.2118Z" fill="white"/>
        <path d="M41.8236 13.1765C41.3353 13.1856 40.8539 13.2938 40.4087 13.4946C39.9634 13.6954 39.5636 13.9845 39.2336 14.3445C38.9035 14.7045 38.65 15.1278 38.4886 15.5888C38.3271 16.0497 38.2609 16.5387 38.2942 17.0259C38.2548 17.5207 38.3192 18.0183 38.4832 18.4868C38.6471 18.9553 38.907 19.3845 39.2463 19.7468C39.5856 20.1091 39.9968 20.3966 40.4535 20.5909C40.9103 20.7853 41.4026 20.8821 41.8989 20.8753C42.5812 20.9121 43.258 20.7339 43.8337 20.3658C44.4095 19.9977 44.8552 19.4583 45.1083 18.8236L43.7059 18.24C43.5959 18.6037 43.3655 18.9192 43.0525 19.1347C42.7395 19.3502 42.3626 19.4529 41.9836 19.4259C41.7136 19.4324 41.4452 19.3839 41.1945 19.2836C40.9438 19.1832 40.716 19.033 40.5251 18.8421C40.3341 18.6511 40.1839 18.4234 40.0836 18.1727C39.9832 17.922 39.9348 17.6535 39.9412 17.3836H45.1365V16.8189C45.1554 14.7859 44.0071 13.1765 41.8236 13.1765ZM40.0071 16.1224C40.0731 15.6902 40.2935 15.2966 40.6275 15.0145C40.9615 14.7324 41.3865 14.581 41.8236 14.5883C42.0313 14.5707 42.2403 14.5976 42.4368 14.6671C42.6333 14.7366 42.8128 14.8471 42.9633 14.9914C43.1137 15.1356 43.2318 15.3102 43.3095 15.5036C43.3873 15.697 43.4229 15.9047 43.4142 16.113L40.0071 16.1224Z" fill="white"/>
        <path d="M48.1201 14.4V13.2989H46.426V20.7059H48.1201V16.8189C48.105 16.5677 48.1434 16.3163 48.2327 16.081C48.3219 15.8458 48.46 15.6322 48.6379 15.4543C48.8158 15.2764 49.0295 15.1383 49.2647 15.049C49.4999 14.9598 49.7514 14.9214 50.0025 14.9365C50.2093 14.9219 50.4169 14.9219 50.6237 14.9365V13.2424C50.4919 13.2424 50.3413 13.2424 50.1437 13.2424C49.7309 13.221 49.3207 13.3188 48.9619 13.524C48.6031 13.7293 48.3109 14.0334 48.1201 14.4Z" fill="white"/>
        <path d="M54.5108 13.1765C54.0225 13.1856 53.5411 13.2938 53.0959 13.4946C52.6507 13.6954 52.2509 13.9845 51.9208 14.3445C51.5908 14.7045 51.3373 15.1278 51.1758 15.5888C51.0143 16.0497 50.9482 16.5387 50.9814 17.0259C50.9421 17.5207 51.0065 18.0183 51.1704 18.4868C51.3344 18.9553 51.5943 19.3845 51.9336 19.7468C52.2729 20.1091 52.684 20.3966 53.1408 20.5909C53.5975 20.7853 54.0898 20.8821 54.5861 20.8753C55.2622 20.9041 55.9306 20.7221 56.4988 20.3546C57.067 19.987 57.5069 19.452 57.7579 18.8236L56.3085 18.2683C56.1984 18.632 55.968 18.9475 55.6551 19.1629C55.3421 19.3784 54.9652 19.4811 54.5861 19.4542C54.3217 19.4517 54.0604 19.3968 53.8174 19.2925C53.5743 19.1881 53.3545 19.0366 53.1706 18.8465C52.9867 18.6565 52.8424 18.4318 52.7461 18.1855C52.6498 17.9392 52.6034 17.6762 52.6097 17.4118H57.8238V16.8471C57.8238 14.7859 56.6567 13.1765 54.5108 13.1765ZM52.6944 16.1224C52.7622 15.6936 52.9821 15.3035 53.3139 15.0235C53.6458 14.7435 54.0673 14.5924 54.5014 14.5977C54.7091 14.5801 54.9182 14.607 55.1147 14.6765C55.3112 14.746 55.4906 14.8566 55.6411 15.0008C55.7916 15.145 55.9096 15.3196 55.9873 15.513C56.0651 15.7064 56.1008 15.9141 56.092 16.1224H52.6944Z" fill="white"/>
        <path d="M63.9979 14.1177C63.7367 13.8112 63.4099 13.5675 63.0417 13.4045C62.6735 13.2416 62.2733 13.1637 61.8709 13.1765C59.7909 13.1765 58.605 14.9177 58.605 17.0259C58.605 19.1342 59.7909 20.8753 61.8709 20.8753C62.2736 20.8902 62.6744 20.8132 63.043 20.6502C63.4115 20.4871 63.7381 20.2422 63.9979 19.9342V20.7059H65.692V10.5789H63.9979V14.1177ZM63.9979 17.2706C64.0359 17.539 64.0154 17.8124 63.938 18.0721C63.8605 18.3318 63.7279 18.5718 63.5492 18.7755C63.3705 18.9793 63.1498 19.142 62.9024 19.2527C62.655 19.3633 62.3866 19.4192 62.1156 19.4165C60.8826 19.4165 60.2332 18.4753 60.2332 17.0447C60.2332 15.6142 60.892 14.673 62.1156 14.673C63.1603 14.673 63.9979 15.4353 63.9979 16.8283V17.2706Z" fill="white"/>
        <path d="M75.0567 13.1765C74.6467 13.1586 74.238 13.234 73.8614 13.397C73.4848 13.56 73.1501 13.8065 72.8826 14.1177V10.5789H71.1885V20.7059H72.8826V19.9247C73.1452 20.2319 73.4736 20.4761 73.8435 20.639C74.2133 20.8019 74.6151 20.8795 75.0191 20.8659C77.0896 20.8659 78.2755 19.1153 78.2755 17.0165C78.2755 14.9177 77.1273 13.1765 75.0567 13.1765ZM74.7649 19.3883C74.4939 19.3909 74.2255 19.3351 73.9781 19.2244C73.7307 19.1138 73.51 18.9511 73.3313 18.7473C73.1526 18.5436 73.02 18.3036 72.9425 18.0439C72.8651 17.7841 72.8446 17.5107 72.8826 17.2424V16.8C72.8826 15.4071 73.6732 14.6447 74.7649 14.6447C75.9885 14.6447 76.6473 15.5859 76.6473 17.0165C76.6473 18.4471 75.9414 19.3883 74.7649 19.3883Z" fill="white"/>
        <path d="M82.2282 18.5035L80.4118 13.2988H78.6235L81.3529 20.4424L81.0706 21.1388C81.0226 21.3774 80.884 21.5882 80.684 21.7268C80.4839 21.8655 80.2379 21.9212 79.9977 21.8824C79.8097 21.8961 79.6209 21.8961 79.4329 21.8824V23.3035C79.6604 23.3374 79.8901 23.3531 80.12 23.3506C80.7076 23.3933 81.2915 23.2282 81.7698 22.8842C82.248 22.5401 82.5902 22.0389 82.7365 21.4682L85.7859 13.3553H84.0071L82.2282 18.5035Z" fill="white"/>
        <path d="M118.059 11.6988C117.687 11.6966 117.319 11.7679 116.975 11.9084C116.631 12.0489 116.318 12.2559 116.054 12.5176L115.922 11.8682H113.673V24.0282L116.233 23.4729V20.527C116.742 20.9534 117.385 21.1867 118.049 21.1858C119.875 21.1858 121.55 19.6894 121.55 16.3764C121.55 13.3458 119.856 11.6988 118.059 11.6988ZM117.447 18.88C117.222 18.8929 116.998 18.8557 116.789 18.771C116.581 18.6864 116.394 18.5564 116.242 18.3905V14.5223C116.395 14.3504 116.584 14.2147 116.795 14.1251C117.007 14.0356 117.236 13.9944 117.466 14.0047C118.407 14.0047 119.047 15.0682 119.047 16.4329C119.047 17.7976 118.398 18.88 117.447 18.88Z" fill="white"/>
        <path d="M126.275 11.6987C123.809 11.6987 122.313 13.8258 122.313 16.5081C122.313 19.6799 124.082 21.2893 126.605 21.2893C127.589 21.3054 128.561 21.0688 129.428 20.6023V18.4846C128.641 18.8819 127.769 19.0821 126.887 19.0681C125.871 19.0681 125.005 18.7011 124.873 17.4681H129.937C129.937 17.327 129.937 16.7717 129.937 16.527C130.021 13.8258 128.741 11.6987 126.275 11.6987ZM124.892 15.5293C124.892 14.3434 125.617 13.8446 126.257 13.8446C126.897 13.8446 127.574 14.3434 127.574 15.5293H124.892Z" fill="white"/>
        <path d="M106.765 12.574L106.605 11.8023H104.421V20.9411H106.944V14.7481C107.172 14.4716 107.478 14.2711 107.823 14.1736C108.168 14.076 108.534 14.086 108.873 14.2023V11.8023C108.488 11.6514 108.061 11.6466 107.673 11.7888C107.285 11.931 106.962 12.2102 106.765 12.574Z" fill="white"/>
        <path d="M94.0213 14.5506C94.0213 14.1365 94.3602 13.9765 94.8966 13.9765C95.7857 13.9957 96.6572 14.2281 97.4378 14.6542V12.1789C96.6308 11.8526 95.7671 11.6894 94.8966 11.6989C92.8166 11.6989 91.4331 12.8095 91.4331 14.673C91.4331 17.5906 95.3296 17.1201 95.3296 18.3718C95.3296 18.8612 94.9155 19.0212 94.3884 19.0212C93.394 18.9631 92.427 18.673 91.5649 18.1742V20.7059C92.4535 21.1023 93.4154 21.3075 94.3884 21.3083C96.5154 21.3083 97.9837 20.2259 97.9837 18.3342C97.9366 15.1718 94.0213 15.7365 94.0213 14.5506Z" fill="white"/>
        <path d="M101.381 9.6377L98.887 10.1836V18.5883C98.8741 18.9425 98.9336 19.2956 99.0618 19.626C99.1901 19.9564 99.3843 20.2572 99.6327 20.5101C99.8811 20.7629 100.178 20.9624 100.507 21.0964C100.835 21.2304 101.187 21.2961 101.541 21.2895C102.159 21.3171 102.775 21.1978 103.339 20.9412V18.8236C103.009 18.9648 101.4 19.4448 101.4 17.8824V14.1177H103.339V11.9153H101.4L101.381 9.6377Z" fill="white"/>
        <path d="M109.824 11.0118L112.393 10.4753V8.44238L109.824 8.97885V11.0118Z" fill="white"/>
        <path d="M112.393 11.8682H109.824V20.9411H112.393V11.8682Z" fill="white"/>
    </g>
    <defs>
        <clipPath id="clip0_2327_6174">
            <rect width="141.176" height="32" fill="white" transform="translate(0.411865)"/>
        </clipPath>
    </defs>
</svg>
