<svg width="185" height="184" viewBox="0 0 185 184" fill="none" xmlns="http://www.w3.org/2000/svg">
<rect x="0.5" width="184" height="184" rx="16" fill="#19212C"/>
<path fill-rule="evenodd" clip-rule="evenodd" d="M141.448 100.948C144.858 93.9335 146.766 86.0909 146.766 77.8144C146.766 47.9262 121.887 23.697 91.1968 23.697C60.5067 23.697 35.6275 47.9262 35.6275 77.8144C35.6275 86.8239 37.8882 95.3192 41.8872 102.792H87.1354L34.08 113.657C24.633 115.591 26.047 129.454 35.6911 129.454H112.083L66.4676 140.477C57.6213 142.614 58.6449 155.467 67.7187 156.187L119.361 160.283C122.789 160.555 125.789 158.005 126.062 154.588C126.335 151.171 123.777 148.181 120.349 147.909L96.4223 146.011L151.194 132.776C160.402 130.551 158.782 117.04 149.307 117.04H79.4402L136.716 105.311C139.062 104.83 140.826 103.093 141.448 100.948Z" fill="url(#paint0_linear)"/>
<defs>
<linearGradient id="paint0_linear" x1="157.318" y1="23.697" x2="47.4895" y2="174.709" gradientUnits="userSpaceOnUse">
<stop offset="0.166667" stop-color="#FF8F5B"/>
<stop offset="0.822917" stop-color="#536DE2"/>
</linearGradient>
</defs>
</svg>
