<svg width="107" height="32" viewBox="0 0 107 32" fill="none" xmlns="http://www.w3.org/2000/svg">
<path fill-rule="evenodd" clip-rule="evenodd" d="M37.5977 23.5594C36.3155 23.5594 35.136 23.247 34.0594 22.6224C32.9827 21.9878 32.1214 21.0557 31.4754 19.8262C30.8293 18.5966 30.5063 17.0944 30.5063 15.3195C30.5063 13.5843 30.8342 12.1119 31.49 10.9022C32.1458 9.69246 33.0121 8.77528 34.0887 8.15059C35.1654 7.516 36.3351 7.1987 37.5977 7.1987C38.8114 7.1987 39.937 7.49617 40.9746 8.0911C41.5884 8.4398 42.1316 8.86855 42.6043 9.37734V0H45.8049V23.247H42.6043V21.3088C42.158 21.8134 41.6442 22.2463 41.0627 22.6075C40.0349 23.2421 38.8799 23.5594 37.5977 23.5594ZM42.6043 16.2119V14.2933C42.6043 13.4703 42.3987 12.7415 41.9876 12.1069C41.5765 11.4624 41.0333 10.9567 40.3579 10.5898C39.6923 10.213 38.9827 10.0246 38.229 10.0246C36.9664 10.0246 35.9093 10.456 35.0577 11.3186C34.2062 12.1714 33.7804 13.505 33.7804 15.3195C33.7804 17.1242 34.2062 18.4628 35.0577 19.3354C35.9191 20.198 36.9762 20.6293 38.229 20.6293C39.0121 20.6293 39.7364 20.4409 40.402 20.0641C41.0675 19.6774 41.601 19.1519 42.0023 18.4876C42.4036 17.8232 42.6043 17.0647 42.6043 16.2119ZM54.9051 23.5591C53.7306 23.5591 52.6979 23.3707 51.8072 22.9939C50.9263 22.6171 50.2412 22.0767 49.7518 21.3727C49.2624 20.6687 49.0177 19.821 49.0177 18.8294C49.0177 17.7684 49.2917 16.8909 49.8399 16.1968C50.3978 15.5027 51.1612 14.9673 52.1302 14.5905C53.109 14.2038 54.22 13.9509 55.463 13.832C57.313 13.6436 58.6148 13.4601 59.3684 13.2816C60.1319 13.1032 60.5136 12.8107 60.5136 12.4041V12.3744C60.5136 11.5712 60.1759 10.9614 59.5006 10.545C58.8252 10.1285 57.8611 9.92027 56.6082 9.92027C55.2869 9.92027 54.264 10.1582 53.5397 10.6342C52.8252 11.1002 52.4679 11.8439 52.4679 12.8652H49.3407C49.3407 11.6555 49.649 10.6292 50.2656 9.78641C50.8921 8.94359 51.7534 8.30403 52.8497 7.86775C53.9459 7.42155 55.2037 7.19845 56.6229 7.19845C57.9247 7.19845 59.109 7.40172 60.1759 7.80825C61.2526 8.20488 62.1091 8.79981 62.7453 9.59306C63.3815 10.3863 63.6996 11.3729 63.6996 12.5529V20.0936C63.6996 20.4605 63.7143 20.8175 63.7436 21.1645C63.773 21.5016 63.8268 21.8041 63.9051 22.0718C63.9932 22.3792 64.096 22.632 64.2135 22.8303C64.3407 23.0286 64.4435 23.1675 64.5218 23.2468H61.3505C61.2918 23.1873 61.2037 23.0633 61.0862 22.875C60.9785 22.6766 60.8807 22.4486 60.7926 22.1908C60.7154 21.9736 60.6532 21.7297 60.6061 21.4592C60.3738 21.7292 60.0983 21.978 59.7795 22.2057C59.1922 22.632 58.4826 22.9642 57.6506 23.2022C56.8285 23.4401 55.9133 23.5591 54.9051 23.5591ZM55.5658 20.8819C56.4761 20.8819 57.3032 20.7381 58.0471 20.4506C58.8007 20.1531 59.4027 19.7069 59.8529 19.112C60.3032 18.5071 60.5283 17.7486 60.5283 16.8364V15.4706C60.0663 15.6066 59.5475 15.7247 58.972 15.825C58.0715 15.9737 57.1417 16.0977 56.1824 16.1968C54.8611 16.3158 53.8676 16.5488 53.202 16.8959C52.5364 17.233 52.2036 17.7982 52.2036 18.5914C52.2036 19.3549 52.4777 19.93 53.0258 20.3167C53.5837 20.6935 54.4304 20.8819 55.5658 20.8819ZM80.8262 23.2471L77.6906 10.8447L74.601 23.2471H70.1818L66.8784 7.45156H70.1818L72.4844 20.783L75.9518 7.45156H79.4167L82.9197 20.8169L85.2014 7.45156H88.5048L85.2161 23.2471H80.8262ZM106.034 23.2468H102.848V14.0402C102.848 13.2668 102.731 12.5876 102.496 12.0025C102.261 11.4076 101.874 10.9465 101.336 10.6193C100.797 10.2822 100.078 10.1136 99.1775 10.1136C98.3847 10.1136 97.6653 10.3119 97.0193 10.7086C96.3831 11.1052 95.8741 11.6456 95.4924 12.3298C95.1204 13.004 94.9345 13.7725 94.9345 14.6351V23.2468H91.7485V7.45129H94.9345V9.80974C95.4604 9.11446 96.1015 8.54149 96.8578 8.09085C97.866 7.49591 98.9671 7.19845 100.161 7.19845C101.395 7.19845 102.447 7.44138 103.318 7.92724C104.199 8.40319 104.869 9.08736 105.329 9.97976C105.799 10.8622 106.034 11.9183 106.034 13.1478V23.2468Z" fill="white"/>
<path fill-rule="evenodd" clip-rule="evenodd" d="M22.4636 20.0574C23.137 18.646 23.5137 17.0681 23.5137 15.4028C23.5137 9.38909 18.6012 4.51404 12.5413 4.51404C6.48145 4.51404 1.56894 9.38909 1.56894 15.4028C1.56894 17.2155 2.01532 18.9248 2.80495 20.4283H11.7394L1.26338 22.6145C-0.601957 23.0037 -0.322758 25.7929 1.5815 25.7929H16.6655L7.65845 28.0108C5.91172 28.4409 6.11382 31.027 7.90548 31.1718L18.1024 31.996C18.7793 32.0507 19.3717 31.5377 19.4256 30.8502C19.4794 30.1626 18.9744 29.5609 18.2975 29.5062L13.5731 29.1243L24.388 26.4613C26.2061 26.0136 25.8864 23.2952 24.0155 23.2952H10.2199L21.5292 20.9352C21.9925 20.8385 22.3409 20.4889 22.4636 20.0574Z" fill="url(#paint0_linear_39_57)"/>
<defs>
<linearGradient id="paint0_linear_39_57" x1="25.5973" y1="4.51404" x2="3.37416" y2="34.5006" gradientUnits="userSpaceOnUse">
<stop offset="0.166667" stop-color="#FF8F5B"/>
<stop offset="0.822917" stop-color="#536DE2"/>
</linearGradient>
</defs>
</svg>
