<svg width="177" height="64" viewBox="0 0 177 64" fill="none" xmlns="http://www.w3.org/2000/svg">
<path d="M37.616 36.168C36.7147 36.168 35.896 35.9307 35.16 35.456C34.4293 34.9813 33.8453 34.2933 33.408 33.392C32.976 32.4907 32.76 31.4 32.76 30.12C32.76 28.8347 32.9813 27.7413 33.424 26.84C33.872 25.9387 34.4747 25.248 35.232 24.768C35.9947 24.288 36.848 24.048 37.792 24.048C38.5653 24.048 39.2187 24.1787 39.752 24.44C40.2907 24.7013 40.728 25.0373 41.064 25.448C41.4053 25.8587 41.6533 26.2933 41.808 26.752C41.9627 27.2053 42.04 27.632 42.04 28.032C42.04 28.048 42.04 28.064 42.04 28.08C42.04 28.096 42.04 28.112 42.04 28.128H40.352C40.352 28.112 40.352 28.096 40.352 28.08C40.352 28.064 40.352 28.048 40.352 28.032C40.352 27.7333 40.2987 27.4373 40.192 27.144C40.0907 26.8453 39.9333 26.576 39.72 26.336C39.512 26.096 39.2453 25.904 38.92 25.76C38.6 25.616 38.224 25.544 37.792 25.544C37.2053 25.544 36.664 25.7067 36.168 26.032C35.672 26.352 35.272 26.8507 34.968 27.528C34.664 28.2 34.512 29.064 34.512 30.12C34.512 30.9253 34.5947 31.6187 34.76 32.2C34.9307 32.776 35.1627 33.248 35.456 33.616C35.7493 33.9787 36.088 34.248 36.472 34.424C36.856 34.6 37.2667 34.688 37.704 34.688C38.2907 34.688 38.7733 34.5893 39.152 34.392C39.536 34.1893 39.832 33.9387 40.04 33.64C40.2533 33.3413 40.3893 33.0453 40.448 32.752V31.672H37.744V30.312H42.008V36H40.896L40.768 34.688C40.7253 34.7787 40.6373 34.904 40.504 35.064C40.3707 35.224 40.1787 35.3893 39.928 35.56C39.6827 35.7307 39.368 35.8747 38.984 35.992C38.6053 36.1093 38.1493 36.168 37.616 36.168ZM46.665 25.64L47.449 24.728V29.912L47.033 29.36H51.505V30.8H47.033L47.449 30.248V35.472L46.665 34.56H52.393V36H45.705V24.2H52.393V25.64H46.665ZM63.3528 25.64H59.7768L60.3208 24.728V36H58.5848V24.728L59.1848 25.64H55.5608V24.2H63.3528V25.64ZM75.7295 36.168C74.8975 36.168 74.1802 36.0373 73.5775 35.776C72.9802 35.5147 72.5162 35.12 72.1855 34.592C71.8602 34.0587 71.6975 33.4 71.6975 32.616C71.6975 32.5147 71.6975 32.4267 71.6975 32.352C71.6975 32.2773 71.6975 32.192 71.6975 32.096H73.4335C73.4335 32.1867 73.4335 32.2667 73.4335 32.336C73.4335 32.4 73.4335 32.4827 73.4335 32.584C73.4335 33.3093 73.6282 33.8427 74.0175 34.184C74.4068 34.52 74.9748 34.688 75.7215 34.688C76.4842 34.688 77.0655 34.56 77.4655 34.304C77.8655 34.0427 78.0655 33.624 78.0655 33.048C78.0655 32.6373 77.9402 32.2933 77.6895 32.016C77.4442 31.7333 77.1028 31.4907 76.6655 31.288C76.2335 31.0853 75.7348 30.896 75.1695 30.72C74.5348 30.5227 73.9615 30.272 73.4495 29.968C72.9375 29.6587 72.5295 29.2747 72.2255 28.816C71.9268 28.352 71.7775 27.7867 71.7775 27.12C71.7775 26.464 71.9428 25.9067 72.2735 25.448C72.6042 24.9893 73.0628 24.6427 73.6495 24.408C74.2362 24.168 74.9082 24.048 75.6655 24.048C76.4708 24.048 77.1722 24.1733 77.7695 24.424C78.3722 24.6693 78.8388 25.0427 79.1695 25.544C79.5055 26.04 79.6735 26.6667 79.6735 27.424C79.6735 27.5307 79.6735 27.624 79.6735 27.704C79.6735 27.7787 79.6735 27.872 79.6735 27.984H77.9295C77.9295 27.8933 77.9295 27.8107 77.9295 27.736C77.9295 27.6613 77.9295 27.5813 77.9295 27.496C77.9295 26.8027 77.7402 26.3013 77.3615 25.992C76.9882 25.6827 76.4335 25.528 75.6975 25.528C74.9828 25.528 74.4308 25.6533 74.0415 25.904C73.6575 26.1547 73.4655 26.56 73.4655 27.12C73.4655 27.536 73.5882 27.8827 73.8335 28.16C74.0842 28.4373 74.4255 28.6747 74.8575 28.872C75.2948 29.0693 75.7908 29.2613 76.3455 29.448C77.0495 29.6827 77.6548 29.9467 78.1615 30.24C78.6735 30.5333 79.0682 30.8987 79.3455 31.336C79.6228 31.7733 79.7615 32.3253 79.7615 32.992C79.7615 33.664 79.5962 34.2373 79.2655 34.712C78.9348 35.1867 78.4682 35.5493 77.8655 35.8C77.2628 36.0453 76.5508 36.168 75.7295 36.168ZM90.3996 25.64H86.8236L87.3676 24.728V36H85.6316V24.728L86.2316 25.64H82.6076V24.2H90.3996V25.64ZM91.6381 36L94.7901 24.176H97.5181L100.638 36H98.8541L96.1421 25.272H96.1581L93.4301 36H91.6381ZM93.4621 33V31.56H98.8381V33H93.4621ZM103.674 36V24.2H107.994C109.13 24.2 109.988 24.464 110.57 24.992C111.151 25.52 111.442 26.312 111.442 27.368C111.442 27.9867 111.322 28.5147 111.082 28.952C110.847 29.3893 110.562 29.728 110.226 29.968C109.895 30.2027 109.583 30.336 109.29 30.368C109.588 30.3893 109.879 30.4693 110.162 30.608C110.444 30.7467 110.679 30.96 110.866 31.248C111.052 31.536 111.146 31.9253 111.146 32.416C111.146 32.832 111.146 33.2533 111.146 33.68C111.146 34.1067 111.146 34.5307 111.146 34.952C111.146 35.192 111.164 35.4107 111.202 35.608C111.244 35.8 111.295 35.9307 111.354 36H109.602C109.554 35.92 109.511 35.7867 109.474 35.6C109.436 35.4133 109.418 35.1973 109.418 34.952C109.418 34.568 109.418 34.1813 109.418 33.792C109.418 33.4027 109.418 33.0133 109.418 32.624C109.418 32.1173 109.266 31.7387 108.962 31.488C108.663 31.232 108.226 31.104 107.65 31.104H104.898L105.37 30.488V36H103.674ZM105.37 30.344L104.898 29.664H107.666C108.039 29.664 108.375 29.576 108.674 29.4C108.972 29.2187 109.21 28.968 109.386 28.648C109.567 28.3227 109.658 27.944 109.658 27.512C109.658 26.8613 109.479 26.3867 109.122 26.088C108.764 25.7893 108.252 25.64 107.586 25.64H104.858L105.37 24.976V30.344ZM121.712 25.64H118.136L118.68 24.728V36H116.944V24.728L117.544 25.64H113.92V24.2H121.712V25.64ZM125.837 25.64L126.621 24.728V29.912L126.205 29.36H130.677V30.8H126.205L126.621 30.248V35.472L125.837 34.56H131.565V36H124.877V24.2H131.565V25.64H125.837ZM135.221 36V24.2H138.461C139.245 24.2 139.954 24.3387 140.589 24.616C141.223 24.8933 141.765 25.288 142.213 25.8C142.666 26.312 143.015 26.9307 143.261 27.656C143.506 28.3813 143.629 29.192 143.629 30.088C143.629 30.9893 143.506 31.8027 143.261 32.528C143.015 33.2533 142.666 33.8747 142.213 34.392C141.765 34.9093 141.223 35.3067 140.589 35.584C139.954 35.8613 139.245 36 138.461 36H135.221ZM136.965 35.472L136.181 34.56H138.253C138.946 34.56 139.565 34.3787 140.109 34.016C140.658 33.6533 141.087 33.1387 141.397 32.472C141.706 31.8 141.861 31.0053 141.861 30.088C141.861 29.1653 141.706 28.3733 141.397 27.712C141.087 27.0453 140.658 26.5333 140.109 26.176C139.565 25.8187 138.946 25.64 138.253 25.64H136.181L136.965 24.728V35.472Z" fill="url(#paint0_linear_52_51)"/>
<rect x="0.5" y="0.5" width="176" height="63" rx="31.5" stroke="url(#paint1_linear_52_51)"/>
<defs>
<linearGradient id="paint0_linear_52_51" x1="145" y1="24" x2="142.369" y2="50.8254" gradientUnits="userSpaceOnUse">
<stop stop-color="#FF8F5B"/>
<stop offset="1" stop-color="#536DE2"/>
</linearGradient>
<linearGradient id="paint1_linear_52_51" x1="177" y1="2.66519e-06" x2="151.467" y2="101.939" gradientUnits="userSpaceOnUse">
<stop stop-color="#FF8F5B"/>
<stop offset="1" stop-color="#536DE2"/>
</linearGradient>
</defs>
</svg>
