<svg width="185" height="184" viewBox="0 0 185 184" fill="none" xmlns="http://www.w3.org/2000/svg">
<rect x="0.5" width="184" height="184" rx="16" fill="#19212C"/>
<path d="M84.9083 61.7602L67.1475 41.2589C65.1 38.8964 61.3463 38.9069 58.968 41.2904L44.3625 55.9222C40.0155 60.2744 38.7713 66.7372 41.286 71.9189C56.3095 103.025 81.3962 128.147 112.481 143.214C117.658 145.729 124.115 144.484 128.462 140.132L143.204 125.364C145.593 122.975 145.598 119.2 143.215 117.153L122.635 99.4867C120.482 97.6387 117.138 97.8802 114.98 100.043L107.819 107.215C107.453 107.599 106.97 107.852 106.446 107.936C105.921 108.019 105.384 107.928 104.916 107.677C93.2108 100.936 83.5012 91.2139 76.776 79.4999C76.5242 79.0313 76.433 78.4931 76.5164 77.9677C76.5999 77.4424 76.8534 76.9589 77.238 76.5914L84.378 69.4462C86.541 67.2727 86.7773 63.9127 84.9083 61.7549V61.7602Z" fill="url(#paint0_linear)"/>
<defs>
<linearGradient id="paint0_linear" x1="144.999" y1="39.4949" x2="62.0276" y2="159.706" gradientUnits="userSpaceOnUse">
<stop offset="0.166667" stop-color="#FF8F5B"/>
<stop offset="0.822917" stop-color="#536DE2"/>
</linearGradient>
</defs>
</svg>
