<svg width="32" height="32" viewBox="0 0 32 32" fill="none" xmlns="http://www.w3.org/2000/svg">
<path d="M4 10C4 9.20435 4.31607 8.44129 4.87868 7.87868C5.44129 7.31607 6.20435 7 7 7H19C19.7956 7 20.5587 7.31607 21.1213 7.87868C21.6839 8.44129 22 9.20435 22 10V22C22 22.7956 21.6839 23.5587 21.1213 24.1213C20.5587 24.6839 19.7956 25 19 25H7C6.20435 25 5.44129 24.6839 4.87868 24.1213C4.31607 23.5587 4 22.7956 4 22V10ZM7 5C5.67392 5 4.40215 5.52678 3.46447 6.46447C2.52678 7.40215 2 8.67392 2 10V22C2 23.3261 2.52678 24.5979 3.46447 25.5355C4.40215 26.4732 5.67392 27 7 27H19C19.6566 27 20.3068 26.8707 20.9134 26.6194C21.52 26.3681 22.0712 25.9998 22.5355 25.5355C22.9998 25.0712 23.3681 24.52 23.6194 23.9134C23.8707 23.3068 24 22.6566 24 22V21L27.6 23.7C27.8229 23.8671 28.0878 23.9689 28.3653 23.9939C28.6427 24.019 28.9217 23.9662 29.1708 23.8416C29.42 23.7171 29.6295 23.5256 29.776 23.2886C29.9224 23.0516 30 22.7786 30 22.5V9.51C30 9.23143 29.9224 8.95837 29.776 8.7214C29.6295 8.48444 29.42 8.29294 29.1708 8.16836C28.9217 8.04378 28.6427 7.99104 28.3653 8.01606C28.0878 8.04108 27.8229 8.14286 27.6 8.31L24 11V10C24 9.34339 23.8707 8.69321 23.6194 8.08658C23.3681 7.47996 22.9998 6.92876 22.5355 6.46447C22.0712 6.00017 21.52 5.63188 20.9134 5.3806C20.3068 5.12933 19.6566 5 19 5H7ZM24 13.5L28 10.508V21.5L24 18.5V13.5Z" fill="url(#paint0_linear_3286_6334)"/>
<defs>
<linearGradient id="paint0_linear_3286_6334" x1="30" y1="5" x2="14.3634" y2="33.7291" gradientUnits="userSpaceOnUse">
<stop offset="0.0416667" stop-color="#FF8F5B"/>
<stop offset="0.817708" stop-color="#536DE2"/>
</linearGradient>
</defs>
</svg>
