<svg width="32" height="32" viewBox="0 0 32 32" fill="none" xmlns="http://www.w3.org/2000/svg">
<path d="M12.7489 4C11.0668 3.99949 9.41178 4.42331 7.93694 5.23224C6.46211 6.04117 5.21516 7.20905 4.3115 8.62782C3.40784 10.0466 2.87667 11.6704 2.76715 13.3489C2.65763 15.0275 2.9733 16.7065 3.68495 18.2307L2.71961 22.02C2.64866 22.2983 2.65085 22.5903 2.72597 22.8676C2.8011 23.1448 2.9466 23.3979 3.14837 23.6024C3.35013 23.8068 3.60132 23.9557 3.87755 24.0344C4.15378 24.1132 4.44569 24.1193 4.72495 24.052C5.72495 23.812 7.26228 23.4427 8.63161 23.116C9.99124 23.7291 11.4708 24.0303 12.9619 23.9976C14.453 23.9649 15.9179 23.599 17.2493 22.9268C18.5807 22.2546 19.7449 21.2931 20.6566 20.1127C21.5683 18.9323 22.2044 17.563 22.5183 16.1049C22.8323 14.6469 22.8161 13.1371 22.471 11.6861C22.1259 10.2351 21.4606 8.87966 20.5238 7.71909C19.587 6.55852 18.4025 5.62219 17.057 4.97868C15.7115 4.33517 14.2391 4.00078 12.7476 4H12.7489ZM4.74895 14C4.74947 12.2604 5.31702 10.5684 6.36559 9.18031C7.41416 7.79225 8.8866 6.7838 10.5598 6.30777C12.233 5.83174 14.0158 5.91408 15.638 6.5423C17.2602 7.17052 18.6334 8.31039 19.5496 9.78919C20.4658 11.268 20.8749 13.0051 20.7151 14.7374C20.5553 16.4696 19.8352 18.1026 18.6639 19.3888C17.4927 20.675 15.9341 21.5444 14.2243 21.8652C12.5146 22.186 10.7468 21.9408 9.18895 21.1667L8.86361 21.0053L8.51161 21.0893C7.28095 21.3827 5.85828 21.7227 4.79428 21.9787L5.71428 18.368L5.80761 18L5.63428 17.6627C5.05033 16.5302 4.74672 15.2741 4.74895 14V14ZM19.4156 28C16.8932 28.0036 14.4632 27.0507 12.6156 25.3333H12.7489C13.7063 25.3333 14.6356 25.2147 15.5223 24.9907C16.6756 25.6333 18.0023 26 19.4156 26C20.6956 26 21.9036 25.7 22.9756 25.1667L23.2996 25.0053L23.6516 25.0893C24.8809 25.3827 26.2729 25.6827 27.3049 25.9027C27.0716 24.9013 26.7529 23.5613 26.4489 22.368L26.3556 22L26.5289 21.6627C27.1134 20.5303 27.4174 19.2743 27.4156 18C27.4163 16.6625 27.0814 15.3462 26.4415 14.1717C25.8016 12.9971 24.8772 12.002 23.7529 11.2773C23.5179 10.325 23.1593 9.4074 22.6863 8.548C24.0099 9.00634 25.2226 9.73753 26.2457 10.6943C27.2688 11.651 28.0796 12.8119 28.6256 14.1019C29.1716 15.3918 29.4406 16.7821 29.4153 18.1826C29.3899 19.5831 29.0707 20.9627 28.4783 22.232C28.8156 23.576 29.1569 25.032 29.3729 25.9693C29.4363 26.2409 29.4301 26.524 29.355 26.7926C29.28 27.0611 29.1384 27.3064 28.9434 27.5058C28.7485 27.7051 28.5064 27.8521 28.2396 27.9331C27.9728 28.0142 27.6898 28.0266 27.4169 27.9693C26.1191 27.6995 24.8244 27.415 23.5329 27.116C22.2391 27.7005 20.8354 28.0019 19.4156 28V28Z" fill="url(#paint0_linear_3286_6293)"/>
<defs>
<linearGradient id="paint0_linear_3286_6293" x1="29.4169" y1="4" x2="11.198" y2="33.3074" gradientUnits="userSpaceOnUse">
<stop offset="0.0416667" stop-color="#FF8F5B"/>
<stop offset="0.817708" stop-color="#536DE2"/>
</linearGradient>
</defs>
</svg>
